<?xml version="1.0"?>
<svg xmlns="http://www.w3.org/2000/svg" xmlns:lc="https://librecad.org" xmlns:xlink="http://www.w3.org/1999/xlink" width="365.36067977mm" height="90.25236mm" viewBox="0 0 365.36067977 90.25236">
    <g lc:layername="track" lc:is_locked="false" lc:is_construction="false" fill="none" stroke="black" stroke-width="1">
        <path d="M179.36067977,4 L26.36067977,8.68919585 A22.36067977,22.36067977 0 0,0 11.06729121,47.36282343 L56.36067977,80.04987562 A32.20248438,32.20248438 0 0,0 75.36067977,86.25236 L285.36067977,85.74544107 A32.69556545,32.69556545 0 0,0 295.39830926,84.16652702 L345.36067977,65.04987562 A26,26 0 0,0 337.51986225,15.13968591 L181.33162254,4.19516179 A10.04987562,10.04987562 0 0,0 179.36067977,4 Z "/>
        <path d="M179.36067977,4 L26.29687825,4.68927306 A26.36067977,26.36067977 0 0,0 8.52716447,50.46253052 L54.01051185,83.28667101 A36.20248438,36.20248438 0 0,0 75.36564884,90.25235966 L285.36564683,89.74544073 A36.69556545,36.69556545 0 0,0 296.73085358,87.93946821 L346.84298061,68.76551683 A30,30 0 0,0 337.82482841,11.15124737 L181.844474,0.22129033 A14.04987562,14.04987562 0 0,0 179.29427764,0.00015691 Z "/>
    </g>
</svg>
